<svg width="215" height="49" viewBox="0 0 215 49" fill="none" xmlns="http://www.w3.org/2000/svg">
<g clip-path="url(#clip0_9_518)">
<path d="M107.5 9.09082C107.028 9.09082 106.599 9.2751 106.266 9.60855C105.916 9.95955 105.75 10.3632 105.75 10.8809C105.75 11.3987 105.925 11.8374 106.266 12.1796C106.616 12.5306 107.019 12.6974 107.5 12.6974C107.982 12.6974 108.393 12.5306 108.734 12.1796C109.076 11.8374 109.251 11.3987 109.251 10.8809C109.251 10.3632 109.076 9.92445 108.734 9.60855C108.384 9.25755 107.982 9.09082 107.5 9.09082Z" fill="#1A1A1A"></path>
<path d="M48.7035 0.175134L2.29316 15.7158C0.848858 16.1984 -0.114012 17.6375 0.00853514 19.1381C0.139836 20.6737 1.23401 21.9022 2.73958 22.1918C6.37223 22.8587 11.029 23.7362 14.7755 24.4294L15.6683 24.5962C18.058 25.0437 20.08 25.421 21.2967 25.6492C21.7694 25.7369 22.1195 26.1581 22.102 26.632C21.997 29.791 21.7694 38.4169 21.5856 45.5773C21.5506 47.1042 22.5659 48.4819 23.984 48.8592C24.1678 48.9207 24.3429 48.9558 24.588 48.9909C24.7018 48.9996 24.8156 49.0084 24.9206 49.0084C26.1198 49.0084 27.2315 48.3766 27.8267 47.3499L52.6512 5.0453C53.3778 3.82556 53.2552 2.28993 52.3624 1.22814C51.4433 0.140033 50.0077 -0.272395 48.7035 0.175134ZM50.5679 3.82556L25.7434 46.1126C25.5421 46.4198 25.2182 46.604 24.8856 46.5777C24.8418 46.5689 24.798 46.5602 24.7368 46.5514C24.728 46.5514 24.7105 46.5514 24.693 46.5514H24.6667C24.2728 46.4373 24.0102 46.0688 24.0453 45.6651L24.5967 25.4737C24.5967 24.5084 23.9227 23.6835 22.9861 23.4993L3.23852 19.8137C2.81836 19.726 2.512 19.375 2.47698 18.9362C2.44197 18.5238 2.69582 18.1377 3.09847 17.9885L49.4913 2.46543C49.5876 2.4391 49.6838 2.42155 49.7801 2.42155C50.0602 2.42155 50.3141 2.53563 50.4892 2.755C50.7255 3.07091 50.7605 3.49211 50.5679 3.82556Z" fill="#1A1A1A"></path>
<path d="M165.797 21.1655C164.423 21.1655 163.171 21.4551 162.086 22.0255C161.105 22.552 160.318 23.3154 159.749 24.2982V21.4639H157.245V39.7599H159.749V29.7739C159.749 27.6591 160.265 26.0445 161.289 24.9651C162.322 23.8682 163.67 23.3417 165.394 23.3417C167.119 23.3417 168.397 23.8595 169.334 24.8861C170.314 25.9216 170.787 27.3783 170.787 29.3351V39.7862H173.238V29.0806C173.238 26.5183 172.537 24.5439 171.154 23.2189C169.762 21.85 167.959 21.1567 165.806 21.1567L165.797 21.1655Z" fill="#1A1A1A"></path>
<path d="M213.95 25.4478C213.258 24.1404 212.234 23.0961 210.93 22.359C209.643 21.6044 208.12 21.2183 206.387 21.2183C204.654 21.2183 203.104 21.6044 201.739 22.359C200.373 23.1137 199.305 24.2193 198.553 25.6409C197.791 27.1151 197.423 28.7473 197.423 30.6339C197.423 32.5206 197.808 34.1966 198.561 35.6269C199.34 37.0309 200.426 38.1278 201.774 38.9088C203.139 39.6635 204.697 40.0496 206.396 40.0496C208.601 40.0496 210.44 39.488 211.875 38.3823C213.346 37.2415 214.309 35.7673 214.755 33.986L214.781 33.8807H212.164L212.146 33.9421C211.823 35.1531 211.166 36.092 210.124 36.8379C209.127 37.5662 207.91 37.9172 206.396 37.9172C205.249 37.9172 204.198 37.6715 203.253 37.1889C202.273 36.6712 201.511 35.9516 200.933 34.9951C200.347 34.0299 200.023 32.9154 199.962 31.6079H214.948V31.529C214.991 30.9674 215.009 30.3531 215.009 29.7125C215.009 28.1857 214.659 26.7553 213.958 25.4654L213.95 25.4478ZM199.927 29.5283C200.076 27.5977 200.75 26.0709 201.923 25.0003C203.148 23.9034 204.575 23.3682 206.282 23.3682C207.42 23.3682 208.479 23.6139 209.424 24.1053C210.387 24.5967 211.14 25.3162 211.665 26.2464C212.217 27.1414 212.488 28.2559 212.47 29.5546L199.927 29.5283Z" fill="#1A1A1A"></path>
<path d="M107.526 21.4902H105.023V39.7863H107.526V21.4902Z" fill="#1A1A1A"></path>
<path d="M67.6896 29.3965H69.1339V29.6159H69.4228V29.3965H77.4146C77.2658 31.0988 76.8281 32.5467 76.0666 33.8016C75.2963 35.0915 74.2984 36.0655 73.0029 36.7675C71.7337 37.4432 70.3244 37.7767 68.7138 37.7767C67.1031 37.7767 65.4925 37.373 64.127 36.5745C62.7615 35.7847 61.7198 34.6791 60.9233 33.1961C60.153 31.6956 59.7591 29.9756 59.7591 28.089C59.7591 26.2024 60.153 24.4386 60.9233 23.017C61.7111 21.534 62.7615 20.4371 64.127 19.6386C65.4925 18.8401 67.0331 18.4364 68.7138 18.4364C70.5257 18.4364 72.1188 18.8752 73.4406 19.7439C74.7798 20.5775 75.7952 21.7622 76.4517 23.2803L76.4692 23.3329L79.3666 23.447L79.3228 23.3241C78.4913 21.104 77.1257 19.349 75.2613 18.1117C73.4231 16.8569 71.2172 16.2251 68.7138 16.2251C66.5429 16.2251 64.6259 16.7253 62.8578 17.752C61.1071 18.7348 59.7066 20.1651 58.6824 21.9903C57.6933 23.7804 57.1943 25.8514 57.1943 28.1329C57.1943 30.4144 57.6933 32.4853 58.6824 34.3105C59.7066 36.1094 61.1071 37.5397 62.8578 38.5489C64.5909 39.5405 66.5604 40.0494 68.7138 40.0494C70.8671 40.0494 72.714 39.5668 74.3509 38.6103C76.0403 37.6626 77.3971 36.3463 78.3862 34.7054C79.3754 33.0206 79.9356 31.1427 80.0406 29.1069V27.3168H67.6984V29.3877L67.6896 29.3965Z" fill="#1A1A1A"></path>
<path d="M97.4337 31.4763C97.4337 33.591 96.9173 35.2057 95.8932 36.285C94.8603 37.3731 93.521 37.9084 91.7878 37.9084C90.0547 37.9084 88.7854 37.3907 87.8226 36.3727C86.8597 35.3285 86.3958 33.8718 86.3958 31.9238V21.5253H83.9448V32.1958C83.9448 34.7494 84.6451 36.7325 86.0281 38.0839C87.4112 39.4177 89.2056 40.0846 91.3764 40.0846C92.7595 40.0846 94.0112 39.7775 95.1141 39.1632C96.1295 38.6016 96.9086 37.8294 97.425 36.8641V39.7775H99.9285V21.4814L97.425 21.5078V31.4675L97.4337 31.4763Z" fill="#1A1A1A"></path>
<path d="M149.648 25.2198C149.087 24.1229 148.221 23.2015 147.065 22.4732C145.814 21.6571 144.299 21.2534 142.575 21.2534C140.85 21.2534 139.389 21.6483 138.067 22.4205C136.754 23.1752 135.712 24.2808 134.959 25.7024C134.224 27.0625 133.856 28.7122 133.856 30.6076C133.856 32.5031 134.233 34.1001 134.959 35.6007C135.703 37.0485 136.745 38.1718 138.067 38.9352C139.432 39.7162 140.903 40.1023 142.549 40.1023C144.194 40.1023 145.779 39.6898 147.039 38.8738C148.203 38.1103 149.061 37.1977 149.648 36.0833V39.8215H152.151V21.5254H149.648V25.2198ZM148.755 34.3809C148.194 35.4515 147.38 36.3027 146.347 36.9081C145.35 37.5049 144.229 37.8032 143.021 37.8032C141.813 37.8032 140.614 37.5224 139.642 36.9608C138.645 36.3641 137.865 35.5392 137.262 34.4424C136.693 33.3367 136.421 32.0731 136.421 30.5725C136.421 29.072 136.693 27.7908 137.262 26.7378C137.848 25.6322 138.627 24.8161 139.642 24.2457C140.632 23.6753 141.743 23.4033 143.021 23.4033C144.238 23.4033 145.35 23.7017 146.347 24.2984C147.354 24.9038 148.168 25.7463 148.755 26.8256C149.35 27.9049 149.648 29.1861 149.648 30.634C149.648 32.0819 149.359 33.2402 148.755 34.3897V34.3809Z" fill="#1A1A1A"></path>
<path d="M182.718 24.1842C183.663 23.6402 184.748 23.3682 185.939 23.3682C187.427 23.3682 188.687 23.7455 189.703 24.4826C190.736 25.1846 191.401 26.2025 191.698 27.4837L191.716 27.5539H194.386L194.359 27.4486C193.913 25.5181 192.95 23.9824 191.506 22.8943C190.07 21.7887 188.206 21.2271 185.974 21.2271C184.267 21.2271 182.735 21.6219 181.413 22.3941C180.091 23.14 179.041 24.2457 178.28 25.676C177.527 27.1063 177.142 28.7736 177.142 30.6427C177.142 32.5118 177.527 34.258 178.28 35.5743C179.032 36.9783 180.091 38.0752 181.413 38.8562C182.753 39.6108 184.293 39.9969 185.974 39.9969C188.18 39.9969 189.983 39.4353 191.506 38.277C193.011 37.1363 193.939 35.6533 194.359 33.7403L194.386 33.635H191.716L191.698 33.7052C191.366 35.0566 190.718 36.0657 189.703 36.794C188.705 37.5224 187.479 37.8734 185.947 37.8734C184.757 37.8734 183.672 37.6013 182.726 37.0573C181.763 36.522 181.011 35.7235 180.433 34.6178C179.89 33.5385 179.619 32.1871 179.619 30.6164C179.619 29.0456 179.89 27.6943 180.433 26.6413C180.993 25.5795 181.763 24.7546 182.726 24.2018L182.718 24.1842Z" fill="#1A1A1A"></path>
<path d="M127.335 25.1582C126.714 24.035 125.812 23.1136 124.639 22.4116C123.326 21.6306 121.908 21.2445 120.297 21.2445C118.687 21.2445 117.111 21.6394 115.789 22.4116C114.476 23.1663 113.435 24.2719 112.682 25.6935C111.929 27.0887 111.553 28.7385 111.553 30.5988C111.553 32.4591 111.912 34.1264 112.629 35.5918C113.373 37.0397 114.424 38.1629 115.728 38.9263C117.05 39.6985 118.573 40.0934 120.236 40.0934C121.899 40.0934 123.44 39.681 124.727 38.8649C125.882 38.1102 126.74 37.1625 127.309 36.0481V39.795H129.839V15.0669H127.335V25.167V25.1582ZM126.442 34.3808C125.882 35.4514 125.077 36.3026 124.035 36.9081C123.037 37.5048 121.917 37.8031 120.709 37.8031C119.501 37.8031 118.302 37.5223 117.33 36.9607C116.332 36.364 115.553 35.5391 114.949 34.4423C114.38 33.3366 114.109 32.073 114.109 30.5724C114.109 29.0719 114.38 27.7907 114.949 26.7377C115.536 25.6321 116.315 24.816 117.33 24.2456C118.319 23.6752 119.431 23.4032 120.709 23.4032C121.925 23.4032 123.037 23.7016 124.035 24.2983C125.042 24.9038 125.856 25.7462 126.442 26.8255C127.037 27.9048 127.335 29.186 127.335 30.6339C127.335 32.0818 127.037 33.3541 126.442 34.3896V34.3808Z" fill="#1A1A1A"></path>
</g>
<defs>
<clipPath id="clip0_9_518">
<rect width="215" height="49" fill="white"></rect>
</clipPath>
</defs>
</svg>